<?xml version="1.0" standalone="no"?>
<!DOCTYPE svg PUBLIC "-//W3C//DTD SVG 20010904//EN"
 "http://www.w3.org/TR/2001/REC-SVG-20010904/DTD/svg10.dtd">
<svg version="1.0" xmlns="http://www.w3.org/2000/svg"
 width="700.000000pt" height="700.000000pt" viewBox="0 0 700.000000 700.000000"
 preserveAspectRatio="xMidYMid meet">
<metadata>
Created by potrace 1.11, written by Peter Selinger 2001-2013
</metadata>
<g transform="translate(0.000000,700.000000) scale(0.100000,-0.100000)"
fill="#000000" stroke="none">
<path d="M1005 6989 c-112 -14 -242 -55 -360 -113 -236 -116 -405 -285 -521
-521 -64 -130 -98 -246 -114 -381 -8 -71 -10 -785 -8 -2539 3 -2314 5 -2444
22 -2515 113 -470 444 -797 906 -897 81 -17 204 -18 2570 -18 2366 0 2489 1
2570 18 466 101 806 441 907 907 17 81 18 204 18 2570 0 2366 -1 2489 -18
2570 -51 233 -154 427 -317 590 -159 158 -344 259 -580 316 -71 17 -199 18
-2540 20 -1376 1 -2496 -2 -2535 -7z m2555 -871 l1 -433 876 -500 c482 -275
895 -511 918 -524 l43 -23 367 211 c202 116 371 211 375 211 10 0 59 -83 54
-91 -2 -3 -172 -102 -379 -220 l-375 -214 0 -1040 1 -1040 374 -214 c206 -118
375 -216 375 -219 0 -3 -11 -25 -25 -49 -24 -39 -28 -42 -48 -32 -12 7 -182
104 -378 216 -196 111 -363 203 -370 202 -8 0 -417 -231 -909 -512 l-895 -513
-5 -439 -5 -440 -52 -3 -53 -3 0 444 0 444 -905 517 -906 518 -383 -221 c-210
-122 -386 -221 -389 -221 -12 0 -61 94 -52 97 6 2 179 102 385 221 l375 217 2
1030 2 1030 -380 215 c-209 118 -385 218 -391 222 -18 10 40 101 60 93 8 -3
177 -98 375 -211 197 -112 362 -206 367 -207 4 -1 417 232 918 518 641 366
913 526 916 540 3 11 6 208 6 438 l0 417 55 0 55 0 0 -432z"/>
<path d="M2603 5048 l-893 -511 0 -1028 0 -1028 894 -510 c491 -281 899 -511
906 -511 7 0 415 230 906 511 l894 510 0 1028 0 1028 -895 512 c-492 281 -901
511 -907 510 -7 0 -415 -230 -905 -511z m1692 -188 c407 -232 744 -426 748
-430 13 -12 -45 -111 -63 -107 -12 3 -1486 841 -1498 852 -6 5 60 115 66 111
4 -2 340 -194 747 -426z m-2235 -1350 l0 -860 -65 0 -65 0 0 860 0 860 65 0
65 0 0 -860z m2963 -865 c15 -26 24 -51 20 -55 -4 -4 -341 -198 -748 -430
-407 -232 -743 -424 -747 -426 -3 -2 -21 21 -39 53 -18 31 -28 58 -23 60 5 2
342 195 749 428 407 234 744 423 750 422 5 -2 22 -25 38 -52z"/>
</g>
</svg>
